# xmcd
#
# Track frame offsets: 
#        150
#        13909
#        31957
#        48756
#        69769
#
# Disc length: 1191 seconds
#
# Revision: 0
# Processed by: cddbd v1.5.2PL0 Copyright (c) Steve Scherf et al.
# Submitted via: ExactAudioCopyFreeDBPlugin 1.0
#
DISCID=3304a505
DTITLE=Savannah Blues Band - Savannah Blues Band
DYEAR=1900
DGENRE=
TTITLE0=Rollin' Man
TTITLE1=Help the Poor
TTITLE2=Here comes the Blues Police
TTITLE3=Tunica Motel
TTITLE4=Still my Heart (calls out your Name)
EXTD=
EXTT0=
EXTT1=
EXTT2=
EXTT3=
EXTT4=
PLAYORDER=
